<mxfile host="65bd71144e">
    <diagram id="7Mg8V790zphF9IppZrZN" name="Page-1">
        <mxGraphModel dx="530" dy="708" grid="1" gridSize="10" guides="1" tooltips="1" connect="1" arrows="1" fold="1" page="1" pageScale="1" pageWidth="850" pageHeight="1100" math="0" shadow="0">
            <root>
                <mxCell id="0"/>
                <mxCell id="1" parent="0"/>
                <mxCell id="20" style="edgeStyle=none;html=1;fontSize=24;" edge="1" parent="1" source="2">
                    <mxGeometry relative="1" as="geometry">
                        <mxPoint x="425" y="790" as="targetPoint"/>
                    </mxGeometry>
                </mxCell>
                <mxCell id="2" value="t" style="whiteSpace=wrap;html=1;" vertex="1" parent="1">
                    <mxGeometry x="190" y="190" width="470" height="600" as="geometry"/>
                </mxCell>
                <mxCell id="3" value="" style="whiteSpace=wrap;html=1;fillColor=#60a917;fontColor=#ffffff;strokeColor=#2D7600;" vertex="1" parent="1">
                    <mxGeometry x="205" y="300" width="445" height="480" as="geometry"/>
                </mxCell>
                <mxCell id="4" value="" style="whiteSpace=wrap;html=1;" vertex="1" parent="1">
                    <mxGeometry x="210" y="310" width="210" height="400" as="geometry"/>
                </mxCell>
                <mxCell id="5" value="" style="whiteSpace=wrap;html=1;" vertex="1" parent="1">
                    <mxGeometry x="430" y="310" width="210" height="400" as="geometry"/>
                </mxCell>
                <mxCell id="7" value="Skills" style="text;strokeColor=none;align=center;fillColor=none;html=1;verticalAlign=middle;whiteSpace=wrap;rounded=0;fontSize=24;" vertex="1" parent="1">
                    <mxGeometry x="347.5" y="210" width="155" height="60" as="geometry"/>
                </mxCell>
                <mxCell id="8" value="submit" style="rounded=1;whiteSpace=wrap;html=1;fontSize=24;" vertex="1" parent="1">
                    <mxGeometry x="362.5" y="720" width="125" height="50" as="geometry"/>
                </mxCell>
                <mxCell id="9" value="soft skills" style="whiteSpace=wrap;html=1;fontSize=24;" vertex="1" parent="1">
                    <mxGeometry x="245" y="330" width="140" height="30" as="geometry"/>
                </mxCell>
                <mxCell id="10" value="" style="whiteSpace=wrap;html=1;fontSize=24;" vertex="1" parent="1">
                    <mxGeometry x="227.5" y="380" width="72.5" height="30" as="geometry"/>
                </mxCell>
                <mxCell id="11" value="" style="whiteSpace=wrap;html=1;fontSize=24;" vertex="1" parent="1">
                    <mxGeometry x="227.5" y="430" width="72.5" height="30" as="geometry"/>
                </mxCell>
                <mxCell id="12" value="" style="whiteSpace=wrap;html=1;fontSize=24;" vertex="1" parent="1">
                    <mxGeometry x="227.5" y="480" width="72.5" height="30" as="geometry"/>
                </mxCell>
                <mxCell id="13" value="" style="whiteSpace=wrap;html=1;fontSize=24;" vertex="1" parent="1">
                    <mxGeometry x="227.5" y="520" width="72.5" height="30" as="geometry"/>
                </mxCell>
                <mxCell id="14" value="" style="whiteSpace=wrap;html=1;fontSize=24;" vertex="1" parent="1">
                    <mxGeometry x="227.5" y="570" width="72.5" height="30" as="geometry"/>
                </mxCell>
                <mxCell id="15" value="" style="line;strokeWidth=4;html=1;perimeter=backbonePerimeter;points=[];outlineConnect=0;fontSize=24;" vertex="1" parent="1">
                    <mxGeometry x="325" y="390" width="75" height="10" as="geometry"/>
                </mxCell>
                <mxCell id="16" value="" style="line;strokeWidth=4;html=1;perimeter=backbonePerimeter;points=[];outlineConnect=0;fontSize=24;" vertex="1" parent="1">
                    <mxGeometry x="325" y="440" width="75" height="10" as="geometry"/>
                </mxCell>
                <mxCell id="17" value="" style="line;strokeWidth=4;html=1;perimeter=backbonePerimeter;points=[];outlineConnect=0;fontSize=24;" vertex="1" parent="1">
                    <mxGeometry x="325" y="490" width="75" height="10" as="geometry"/>
                </mxCell>
                <mxCell id="18" value="" style="line;strokeWidth=4;html=1;perimeter=backbonePerimeter;points=[];outlineConnect=0;fontSize=24;" vertex="1" parent="1">
                    <mxGeometry x="325" y="530" width="75" height="10" as="geometry"/>
                </mxCell>
                <mxCell id="19" value="" style="line;strokeWidth=4;html=1;perimeter=backbonePerimeter;points=[];outlineConnect=0;fontSize=24;" vertex="1" parent="1">
                    <mxGeometry x="325" y="580" width="75" height="10" as="geometry"/>
                </mxCell>
                <mxCell id="21" value="hard skills" style="rounded=0;whiteSpace=wrap;html=1;fontSize=24;" vertex="1" parent="1">
                    <mxGeometry x="460" y="330" width="150" height="35" as="geometry"/>
                </mxCell>
                <mxCell id="22" value="" style="rounded=0;whiteSpace=wrap;html=1;fontSize=24;" vertex="1" parent="1">
                    <mxGeometry x="449" y="390" width="72.5" height="30" as="geometry"/>
                </mxCell>
                <mxCell id="23" value="" style="rounded=0;whiteSpace=wrap;html=1;fontSize=24;" vertex="1" parent="1">
                    <mxGeometry x="449" y="430" width="72.5" height="30" as="geometry"/>
                </mxCell>
                <mxCell id="24" value="" style="rounded=0;whiteSpace=wrap;html=1;fontSize=24;" vertex="1" parent="1">
                    <mxGeometry x="449" y="475" width="72.5" height="30" as="geometry"/>
                </mxCell>
                <mxCell id="25" value="" style="rounded=0;whiteSpace=wrap;html=1;fontSize=24;" vertex="1" parent="1">
                    <mxGeometry x="449" y="520" width="72.5" height="30" as="geometry"/>
                </mxCell>
                <mxCell id="26" value="" style="rounded=0;whiteSpace=wrap;html=1;fontSize=24;" vertex="1" parent="1">
                    <mxGeometry x="449" y="570" width="72.5" height="30" as="geometry"/>
                </mxCell>
                <mxCell id="28" value="" style="line;strokeWidth=4;html=1;perimeter=backbonePerimeter;points=[];outlineConnect=0;fontSize=24;" vertex="1" parent="1">
                    <mxGeometry x="550" y="400" width="75" height="10" as="geometry"/>
                </mxCell>
                <mxCell id="29" value="" style="line;strokeWidth=4;html=1;perimeter=backbonePerimeter;points=[];outlineConnect=0;fontSize=24;" vertex="1" parent="1">
                    <mxGeometry x="550" y="440" width="75" height="10" as="geometry"/>
                </mxCell>
                <mxCell id="30" value="" style="line;strokeWidth=4;html=1;perimeter=backbonePerimeter;points=[];outlineConnect=0;fontSize=24;" vertex="1" parent="1">
                    <mxGeometry x="550" y="485" width="75" height="10" as="geometry"/>
                </mxCell>
                <mxCell id="31" value="" style="line;strokeWidth=4;html=1;perimeter=backbonePerimeter;points=[];outlineConnect=0;fontSize=24;" vertex="1" parent="1">
                    <mxGeometry x="550" y="530" width="75" height="10" as="geometry"/>
                </mxCell>
                <mxCell id="32" value="" style="line;strokeWidth=4;html=1;perimeter=backbonePerimeter;points=[];outlineConnect=0;fontSize=24;" vertex="1" parent="1">
                    <mxGeometry x="550" y="580" width="75" height="10" as="geometry"/>
                </mxCell>
                <mxCell id="33" value="" style="shape=singleArrow;whiteSpace=wrap;html=1;fontSize=24;" vertex="1" parent="1">
                    <mxGeometry x="700" y="465" width="100" height="60" as="geometry"/>
                </mxCell>
                <mxCell id="34" value="" style="shape=singleArrow;direction=west;whiteSpace=wrap;html=1;fontSize=24;" vertex="1" parent="1">
                    <mxGeometry x="20" y="460" width="100" height="60" as="geometry"/>
                </mxCell>
                <mxCell id="35" value="next" style="text;html=1;align=center;verticalAlign=middle;resizable=0;points=[];autosize=1;strokeColor=none;fillColor=none;fontSize=24;" vertex="1" parent="1">
                    <mxGeometry x="715" y="530" width="70" height="40" as="geometry"/>
                </mxCell>
                <mxCell id="36" value="previous" style="text;html=1;align=center;verticalAlign=middle;resizable=0;points=[];autosize=1;strokeColor=none;fillColor=none;fontSize=24;" vertex="1" parent="1">
                    <mxGeometry x="20" y="530" width="110" height="40" as="geometry"/>
                </mxCell>
            </root>
        </mxGraphModel>
    </diagram>
</mxfile>